<svg width="80" height="80" viewBox="0 0 80 80" fill="none" xmlns="http://www.w3.org/2000/svg">
<circle cx="40" cy="40" r="40" fill="#2AA2D2" fill-opacity="0.5"/>
<path d="M26 27V50.6089C26 50.9772 26.1536 51.3305 26.4271 51.5909C26.7006 51.8514 27.0716 51.9977 27.4583 51.9977H52.25V49.2202H28.9167V27H26Z" fill="#2AA2D2"/>
<path d="M43.9274 43.2581C44.0627 43.3872 44.2234 43.4896 44.4004 43.5594C44.5773 43.6293 44.7669 43.6653 44.9585 43.6653C45.15 43.6653 45.3396 43.6293 45.5165 43.5594C45.6935 43.4896 45.8542 43.3872 45.9895 43.2581L53.2812 36.3143L51.2191 34.3506L44.9585 40.3125L41.6145 37.1281C41.4792 36.999 41.3185 36.8966 41.1415 36.8268C40.9646 36.7569 40.775 36.7209 40.5835 36.7209C40.3919 36.7209 40.2023 36.7569 40.0254 36.8268C39.8484 36.8966 39.6877 36.999 39.5524 37.1281L32.2607 44.0719L34.3228 46.0356L40.5835 40.0737L43.9274 43.2581Z" fill="#2AA2D2"/>
</svg>
