<svg width="80" height="80" viewBox="0 0 80 80" fill="none" xmlns="http://www.w3.org/2000/svg">
<circle cx="40" cy="40" r="40" fill="#2AA2D2" fill-opacity="0.5"/>
<path d="M45.8524 36.7875L45.8592 36.781L44.6766 35.3391C44.6546 35.3121 44.6273 35.2895 44.5962 35.2726C44.565 35.2557 44.5307 35.2449 44.4951 35.2406C44.4596 35.2364 44.4235 35.2389 44.3889 35.248C44.3544 35.257 44.322 35.2725 44.2938 35.2935L42.5711 36.5727L40.1615 33.64C40.1395 33.613 40.1122 33.5905 40.081 33.5736C40.0499 33.5567 40.0156 33.5458 39.98 33.5416C39.9444 33.5373 39.9083 33.5398 39.8738 33.5489C39.8392 33.558 39.8069 33.5734 39.7787 33.5944L38.4832 34.5611C38.4549 34.5821 38.4312 34.6081 38.4135 34.6377C38.3957 34.6674 38.3843 34.7001 38.3799 34.734C38.3754 34.7678 38.378 34.8022 38.3876 34.8351C38.3971 34.868 38.4133 34.8988 38.4354 34.9257L40.8451 37.8616L40.8382 37.8649L42.0208 39.3068C42.1131 39.4207 42.284 39.4402 42.4037 39.3524L44.1263 38.0732L46.3172 40.7422C46.4095 40.8561 46.5804 40.8757 46.7 40.7878L47.9954 39.8243C48.1151 39.7364 48.1356 39.5737 48.0433 39.4598L45.8524 36.7875ZM42.9539 27C37.2152 27 32.5633 31.4299 32.5633 36.8949C32.5633 39.1831 33.3802 41.289 34.7474 42.9653L26.0794 51.2198C26.0285 51.2687 26 51.3348 26 51.4037C26 51.4725 26.0285 51.5386 26.0794 51.5876L27.5252 52.9644C27.6312 53.0653 27.8055 53.0653 27.9115 52.9644L36.5794 44.7099C38.3397 46.0119 40.5511 46.7898 42.9539 46.7898C48.6927 46.7898 53.3446 42.3599 53.3446 36.8949C53.3446 31.4299 48.6927 27 42.9539 27ZM48.4637 42.1418C46.994 43.5447 45.0355 44.3161 42.9539 44.3161C40.8724 44.3161 38.9139 43.5447 37.4442 42.1418C35.971 40.7422 35.161 38.8772 35.161 36.8949C35.161 34.9127 35.971 33.0476 37.4442 31.648C38.9139 30.2451 40.8724 29.4737 42.9539 29.4737C45.0355 29.4737 46.994 30.2451 48.4637 31.648C49.9369 33.0476 50.7469 34.9127 50.7469 36.8949C50.7469 38.8772 49.9369 40.7422 48.4637 42.1418Z" fill="white"/>
</svg>
